# xmcd
#
# Track frame offsets:
#	150
#	29003
#	52011
#	72527
#	96658
#
# Disc length: 1549 seconds
#
# Revision: 0
# Processed by: cddbd v1.5.2PL0 Copyright (c) Steve Scherf et al.
# Submitted via: dBpowerAMP V4.0
#
DISCID=4e060b05
DTITLE=Tempa and the Tantrums - Voodoo and Angels
DYEAR=2007
DGENRE=Blues
TTITLE0=Zydeco Jam
TTITLE1=Misty Blue
TTITLE2=Brother Bob
TTITLE3=Voodoo
TTITLE4=Where Did Our Love Go
EXTD=
EXTT0=
EXTT1=
EXTT2=
EXTT3=
EXTT4=
PLAYORDER=
